<mxfile host="app.diagrams.net" modified="2021-08-05T20:07:46.838Z" agent="5.0 (Windows NT 10.0; Win64; x64) AppleWebKit/537.36 (KHTML, like Gecko) Chrome/92.0.4515.107 Safari/537.36 Edg/92.0.902.62" etag="3Dz-KNtpiUI6ydJ8DRaS" version="14.9.2" type="github">
  <diagram id="IPwbatT1BVXsD7soHIid" name="Page-1">
    <mxGraphModel dx="3751" dy="2713" grid="1" gridSize="10" guides="1" tooltips="1" connect="1" arrows="1" fold="1" page="1" pageScale="1" pageWidth="827" pageHeight="1169" math="0" shadow="0">
      <root>
        <mxCell id="0" />
        <mxCell id="1" parent="0" />
        <mxCell id="ki_Qq6n7sDI-YIgVJBH6-42" style="edgeStyle=orthogonalEdgeStyle;rounded=0;orthogonalLoop=1;jettySize=auto;html=1;fontSize=25;strokeWidth=5;" edge="1" parent="1" source="ki_Qq6n7sDI-YIgVJBH6-1" target="ki_Qq6n7sDI-YIgVJBH6-22">
          <mxGeometry relative="1" as="geometry">
            <Array as="points">
              <mxPoint x="340" y="360" />
              <mxPoint x="340" y="280" />
            </Array>
          </mxGeometry>
        </mxCell>
        <mxCell id="ki_Qq6n7sDI-YIgVJBH6-44" style="edgeStyle=orthogonalEdgeStyle;rounded=0;orthogonalLoop=1;jettySize=auto;html=1;fontSize=25;entryX=0;entryY=0.5;entryDx=0;entryDy=0;strokeWidth=5;" edge="1" parent="1" source="ki_Qq6n7sDI-YIgVJBH6-1" target="ki_Qq6n7sDI-YIgVJBH6-26">
          <mxGeometry relative="1" as="geometry">
            <mxPoint x="360" y="240" as="targetPoint" />
            <Array as="points">
              <mxPoint x="340" y="360" />
              <mxPoint x="340" y="60" />
            </Array>
          </mxGeometry>
        </mxCell>
        <mxCell id="ki_Qq6n7sDI-YIgVJBH6-45" style="edgeStyle=orthogonalEdgeStyle;rounded=0;orthogonalLoop=1;jettySize=auto;html=1;fontSize=25;entryX=0;entryY=0.5;entryDx=0;entryDy=0;strokeWidth=5;" edge="1" parent="1" source="ki_Qq6n7sDI-YIgVJBH6-1" target="ki_Qq6n7sDI-YIgVJBH6-28">
          <mxGeometry relative="1" as="geometry">
            <mxPoint x="370" y="580" as="targetPoint" />
            <Array as="points">
              <mxPoint x="340" y="360" />
              <mxPoint x="340" y="780" />
            </Array>
          </mxGeometry>
        </mxCell>
        <mxCell id="ki_Qq6n7sDI-YIgVJBH6-46" style="edgeStyle=orthogonalEdgeStyle;rounded=0;orthogonalLoop=1;jettySize=auto;html=1;fontSize=25;strokeWidth=5;" edge="1" parent="1" source="ki_Qq6n7sDI-YIgVJBH6-1" target="ki_Qq6n7sDI-YIgVJBH6-27">
          <mxGeometry relative="1" as="geometry">
            <Array as="points">
              <mxPoint x="340" y="360" />
              <mxPoint x="340" y="580" />
            </Array>
          </mxGeometry>
        </mxCell>
        <mxCell id="ki_Qq6n7sDI-YIgVJBH6-1" value="업체&lt;br&gt;(AllFoodadminProject)&lt;br style=&quot;font-size: 25px&quot;&gt;" style="rounded=0;whiteSpace=wrap;html=1;fontSize=25;fontStyle=1" vertex="1" parent="1">
          <mxGeometry x="-70" y="270" width="280" height="180" as="geometry" />
        </mxCell>
        <mxCell id="ki_Qq6n7sDI-YIgVJBH6-76" style="edgeStyle=orthogonalEdgeStyle;rounded=0;orthogonalLoop=1;jettySize=auto;html=1;fontSize=20;strokeWidth=5;" edge="1" parent="1" source="ki_Qq6n7sDI-YIgVJBH6-22" target="ki_Qq6n7sDI-YIgVJBH6-71">
          <mxGeometry relative="1" as="geometry">
            <Array as="points">
              <mxPoint x="680" y="280" />
              <mxPoint x="680" y="-176" />
            </Array>
          </mxGeometry>
        </mxCell>
        <mxCell id="ki_Qq6n7sDI-YIgVJBH6-77" style="edgeStyle=orthogonalEdgeStyle;rounded=0;orthogonalLoop=1;jettySize=auto;html=1;entryX=0;entryY=0.5;entryDx=0;entryDy=0;fontSize=20;strokeWidth=5;" edge="1" parent="1" source="ki_Qq6n7sDI-YIgVJBH6-22" target="ki_Qq6n7sDI-YIgVJBH6-70">
          <mxGeometry relative="1" as="geometry">
            <Array as="points">
              <mxPoint x="680" y="280" />
              <mxPoint x="680" y="-5" />
            </Array>
          </mxGeometry>
        </mxCell>
        <mxCell id="ki_Qq6n7sDI-YIgVJBH6-78" style="edgeStyle=orthogonalEdgeStyle;rounded=0;orthogonalLoop=1;jettySize=auto;html=1;entryX=0;entryY=0.5;entryDx=0;entryDy=0;fontSize=20;strokeWidth=5;" edge="1" parent="1" source="ki_Qq6n7sDI-YIgVJBH6-22" target="ki_Qq6n7sDI-YIgVJBH6-62">
          <mxGeometry relative="1" as="geometry">
            <Array as="points">
              <mxPoint x="680" y="280" />
              <mxPoint x="680" y="165" />
            </Array>
          </mxGeometry>
        </mxCell>
        <mxCell id="ki_Qq6n7sDI-YIgVJBH6-79" style="edgeStyle=orthogonalEdgeStyle;rounded=0;orthogonalLoop=1;jettySize=auto;html=1;entryX=0;entryY=0.5;entryDx=0;entryDy=0;fontSize=20;strokeWidth=5;" edge="1" parent="1" source="ki_Qq6n7sDI-YIgVJBH6-22" target="ki_Qq6n7sDI-YIgVJBH6-72">
          <mxGeometry relative="1" as="geometry">
            <Array as="points">
              <mxPoint x="680" y="280" />
              <mxPoint x="680" y="-345" />
            </Array>
          </mxGeometry>
        </mxCell>
        <mxCell id="ki_Qq6n7sDI-YIgVJBH6-80" style="edgeStyle=orthogonalEdgeStyle;rounded=0;orthogonalLoop=1;jettySize=auto;html=1;entryX=0;entryY=0.5;entryDx=0;entryDy=0;fontSize=20;strokeWidth=5;" edge="1" parent="1" source="ki_Qq6n7sDI-YIgVJBH6-22" target="ki_Qq6n7sDI-YIgVJBH6-73">
          <mxGeometry relative="1" as="geometry">
            <Array as="points">
              <mxPoint x="680" y="280" />
              <mxPoint x="680" y="-505" />
            </Array>
          </mxGeometry>
        </mxCell>
        <mxCell id="ki_Qq6n7sDI-YIgVJBH6-81" style="edgeStyle=orthogonalEdgeStyle;rounded=0;orthogonalLoop=1;jettySize=auto;html=1;entryX=0;entryY=0.5;entryDx=0;entryDy=0;fontSize=20;strokeWidth=5;" edge="1" parent="1" source="ki_Qq6n7sDI-YIgVJBH6-22" target="ki_Qq6n7sDI-YIgVJBH6-74">
          <mxGeometry relative="1" as="geometry">
            <Array as="points">
              <mxPoint x="680" y="280" />
              <mxPoint x="680" y="-675" />
            </Array>
          </mxGeometry>
        </mxCell>
        <mxCell id="ki_Qq6n7sDI-YIgVJBH6-82" style="edgeStyle=orthogonalEdgeStyle;rounded=0;orthogonalLoop=1;jettySize=auto;html=1;entryX=0;entryY=0.5;entryDx=0;entryDy=0;fontSize=20;strokeWidth=5;" edge="1" parent="1" source="ki_Qq6n7sDI-YIgVJBH6-22" target="ki_Qq6n7sDI-YIgVJBH6-75">
          <mxGeometry relative="1" as="geometry">
            <Array as="points">
              <mxPoint x="680" y="280" />
              <mxPoint x="680" y="-845" />
            </Array>
          </mxGeometry>
        </mxCell>
        <mxCell id="ki_Qq6n7sDI-YIgVJBH6-22" value="&lt;span&gt;식당 = 지점&lt;/span&gt;&lt;br&gt;&lt;span&gt;(Restaurant)&lt;/span&gt;" style="ellipse;whiteSpace=wrap;html=1;rounded=0;fontSize=20;fontStyle=1;fillColor=#f8cecc;strokeColor=#b85450;" vertex="1" parent="1">
          <mxGeometry x="400" y="230" width="200" height="100" as="geometry" />
        </mxCell>
        <mxCell id="ki_Qq6n7sDI-YIgVJBH6-26" value="업체 이름&lt;br&gt;(String)" style="ellipse;whiteSpace=wrap;html=1;rounded=0;fontSize=20;fontStyle=1;fillColor=#ffe6cc;strokeColor=#d79b00;" vertex="1" parent="1">
          <mxGeometry x="400" y="10" width="200" height="100" as="geometry" />
        </mxCell>
        <mxCell id="ki_Qq6n7sDI-YIgVJBH6-58" style="edgeStyle=orthogonalEdgeStyle;rounded=0;orthogonalLoop=1;jettySize=auto;html=1;fontSize=20;strokeWidth=6;" edge="1" parent="1" source="ki_Qq6n7sDI-YIgVJBH6-27" target="ki_Qq6n7sDI-YIgVJBH6-56">
          <mxGeometry relative="1" as="geometry" />
        </mxCell>
        <mxCell id="ki_Qq6n7sDI-YIgVJBH6-59" style="edgeStyle=orthogonalEdgeStyle;rounded=0;orthogonalLoop=1;jettySize=auto;html=1;entryX=0;entryY=0.5;entryDx=0;entryDy=0;fontSize=20;strokeWidth=6;" edge="1" parent="1" source="ki_Qq6n7sDI-YIgVJBH6-27" target="ki_Qq6n7sDI-YIgVJBH6-57">
          <mxGeometry relative="1" as="geometry" />
        </mxCell>
        <mxCell id="ki_Qq6n7sDI-YIgVJBH6-60" style="edgeStyle=orthogonalEdgeStyle;rounded=0;orthogonalLoop=1;jettySize=auto;html=1;entryX=0;entryY=0.5;entryDx=0;entryDy=0;fontSize=20;strokeWidth=6;" edge="1" parent="1" source="ki_Qq6n7sDI-YIgVJBH6-27" target="ki_Qq6n7sDI-YIgVJBH6-55">
          <mxGeometry relative="1" as="geometry" />
        </mxCell>
        <mxCell id="ki_Qq6n7sDI-YIgVJBH6-61" style="edgeStyle=orthogonalEdgeStyle;rounded=0;orthogonalLoop=1;jettySize=auto;html=1;entryX=0;entryY=0.5;entryDx=0;entryDy=0;fontSize=20;strokeWidth=6;" edge="1" parent="1" source="ki_Qq6n7sDI-YIgVJBH6-27" target="ki_Qq6n7sDI-YIgVJBH6-54">
          <mxGeometry relative="1" as="geometry" />
        </mxCell>
        <mxCell id="ki_Qq6n7sDI-YIgVJBH6-27" value="&lt;span&gt;관리자&lt;/span&gt;&lt;br&gt;&lt;span&gt;(Owner)&lt;/span&gt;" style="ellipse;whiteSpace=wrap;html=1;rounded=0;fontSize=20;fontStyle=1;" vertex="1" parent="1">
          <mxGeometry x="400" y="530" width="200" height="100" as="geometry" />
        </mxCell>
        <mxCell id="ki_Qq6n7sDI-YIgVJBH6-52" style="edgeStyle=orthogonalEdgeStyle;rounded=0;orthogonalLoop=1;jettySize=auto;html=1;fontSize=20;strokeWidth=6;" edge="1" parent="1" source="ki_Qq6n7sDI-YIgVJBH6-28" target="ki_Qq6n7sDI-YIgVJBH6-49">
          <mxGeometry relative="1" as="geometry">
            <Array as="points">
              <mxPoint x="500" y="1094" />
            </Array>
          </mxGeometry>
        </mxCell>
        <mxCell id="ki_Qq6n7sDI-YIgVJBH6-53" style="edgeStyle=orthogonalEdgeStyle;rounded=0;orthogonalLoop=1;jettySize=auto;html=1;entryX=0;entryY=0.5;entryDx=0;entryDy=0;fontSize=20;strokeWidth=6;" edge="1" parent="1" source="ki_Qq6n7sDI-YIgVJBH6-28" target="ki_Qq6n7sDI-YIgVJBH6-51">
          <mxGeometry relative="1" as="geometry">
            <Array as="points">
              <mxPoint x="500" y="1265" />
            </Array>
          </mxGeometry>
        </mxCell>
        <mxCell id="ki_Qq6n7sDI-YIgVJBH6-28" value="리뷰&lt;br&gt;(Review)" style="ellipse;whiteSpace=wrap;html=1;rounded=0;fontSize=20;fontStyle=1;fillColor=#ffe6cc;strokeColor=#d79b00;" vertex="1" parent="1">
          <mxGeometry x="400" y="730" width="200" height="100" as="geometry" />
        </mxCell>
        <mxCell id="ki_Qq6n7sDI-YIgVJBH6-49" value="평점&lt;br&gt;(int)" style="rhombus;whiteSpace=wrap;html=1;fontSize=20;" vertex="1" parent="1">
          <mxGeometry x="810" y="1019" width="150" height="150" as="geometry" />
        </mxCell>
        <mxCell id="ki_Qq6n7sDI-YIgVJBH6-51" value="리뷰 개수&lt;br&gt;(int)" style="rhombus;whiteSpace=wrap;html=1;fontSize=20;" vertex="1" parent="1">
          <mxGeometry x="810" y="1190" width="150" height="150" as="geometry" />
        </mxCell>
        <mxCell id="ki_Qq6n7sDI-YIgVJBH6-54" value="정회원 여부&lt;br&gt;(Boolean)" style="rhombus;whiteSpace=wrap;html=1;fontSize=20;" vertex="1" parent="1">
          <mxGeometry x="810" y="800" width="150" height="150" as="geometry" />
        </mxCell>
        <mxCell id="ki_Qq6n7sDI-YIgVJBH6-55" value="가입일자&lt;br&gt;(String)" style="rhombus;whiteSpace=wrap;html=1;fontSize=20;" vertex="1" parent="1">
          <mxGeometry x="810" y="640" width="150" height="150" as="geometry" />
        </mxCell>
        <mxCell id="ki_Qq6n7sDI-YIgVJBH6-56" value="관리자 연락처&lt;br&gt;(String)" style="rhombus;whiteSpace=wrap;html=1;fontSize=20;" vertex="1" parent="1">
          <mxGeometry x="810" y="470" width="150" height="150" as="geometry" />
        </mxCell>
        <mxCell id="ki_Qq6n7sDI-YIgVJBH6-57" value="관리자 이름&lt;br&gt;(String)" style="rhombus;whiteSpace=wrap;html=1;fontSize=20;" vertex="1" parent="1">
          <mxGeometry x="810" y="300" width="150" height="150" as="geometry" />
        </mxCell>
        <mxCell id="ki_Qq6n7sDI-YIgVJBH6-62" value="연 매출&lt;br&gt;(int)" style="rhombus;whiteSpace=wrap;html=1;fontSize=20;" vertex="1" parent="1">
          <mxGeometry x="810" y="90" width="150" height="150" as="geometry" />
        </mxCell>
        <mxCell id="ki_Qq6n7sDI-YIgVJBH6-64" value="리뷰 개수&lt;br&gt;(int)" style="rhombus;whiteSpace=wrap;html=1;fontSize=20;" vertex="1" parent="1">
          <mxGeometry x="810" y="1190" width="150" height="150" as="geometry" />
        </mxCell>
        <mxCell id="ki_Qq6n7sDI-YIgVJBH6-65" value="평점&lt;br&gt;(int)" style="rhombus;whiteSpace=wrap;html=1;fontSize=20;fillColor=#ffe6cc;strokeColor=#d79b00;" vertex="1" parent="1">
          <mxGeometry x="810" y="1019" width="150" height="150" as="geometry" />
        </mxCell>
        <mxCell id="ki_Qq6n7sDI-YIgVJBH6-66" value="정회원 여부&lt;br&gt;(Boolean)" style="rhombus;whiteSpace=wrap;html=1;fontSize=20;" vertex="1" parent="1">
          <mxGeometry x="810" y="800" width="150" height="150" as="geometry" />
        </mxCell>
        <mxCell id="ki_Qq6n7sDI-YIgVJBH6-67" value="가입일자&lt;br&gt;(String)" style="rhombus;whiteSpace=wrap;html=1;fontSize=20;" vertex="1" parent="1">
          <mxGeometry x="810" y="640" width="150" height="150" as="geometry" />
        </mxCell>
        <mxCell id="ki_Qq6n7sDI-YIgVJBH6-68" value="관리자 연락처&lt;br&gt;(String)" style="rhombus;whiteSpace=wrap;html=1;fontSize=20;" vertex="1" parent="1">
          <mxGeometry x="810" y="470" width="150" height="150" as="geometry" />
        </mxCell>
        <mxCell id="ki_Qq6n7sDI-YIgVJBH6-69" value="관리자 이름&lt;br&gt;(String)" style="rhombus;whiteSpace=wrap;html=1;fontSize=20;" vertex="1" parent="1">
          <mxGeometry x="810" y="300" width="150" height="150" as="geometry" />
        </mxCell>
        <mxCell id="ki_Qq6n7sDI-YIgVJBH6-70" value="지점 연락처&lt;br&gt;(String)" style="rhombus;whiteSpace=wrap;html=1;fontSize=20;" vertex="1" parent="1">
          <mxGeometry x="810" y="-80" width="150" height="150" as="geometry" />
        </mxCell>
        <mxCell id="ki_Qq6n7sDI-YIgVJBH6-71" value="대표메뉴 가격&lt;br&gt;(int)" style="rhombus;whiteSpace=wrap;html=1;fontSize=20;" vertex="1" parent="1">
          <mxGeometry x="810" y="-251" width="150" height="150" as="geometry" />
        </mxCell>
        <mxCell id="ki_Qq6n7sDI-YIgVJBH6-72" value="대표 메뉴&lt;br&gt;(String)" style="rhombus;whiteSpace=wrap;html=1;fontSize=20;" vertex="1" parent="1">
          <mxGeometry x="810" y="-420" width="150" height="150" as="geometry" />
        </mxCell>
        <mxCell id="ki_Qq6n7sDI-YIgVJBH6-73" value="위치&lt;br&gt;(String)" style="rhombus;whiteSpace=wrap;html=1;fontSize=20;" vertex="1" parent="1">
          <mxGeometry x="810" y="-580" width="150" height="150" as="geometry" />
        </mxCell>
        <mxCell id="ki_Qq6n7sDI-YIgVJBH6-74" value="카테고리&lt;br&gt;(String)" style="rhombus;whiteSpace=wrap;html=1;fontSize=20;fillColor=#f8cecc;strokeColor=#b85450;" vertex="1" parent="1">
          <mxGeometry x="810" y="-750" width="150" height="150" as="geometry" />
        </mxCell>
        <mxCell id="ki_Qq6n7sDI-YIgVJBH6-75" value="지점 이름&lt;br&gt;(String)" style="rhombus;whiteSpace=wrap;html=1;fontSize=20;fillColor=#d5e8d4;strokeColor=#82b366;" vertex="1" parent="1">
          <mxGeometry x="810" y="-920" width="150" height="150" as="geometry" />
        </mxCell>
        <mxCell id="ki_Qq6n7sDI-YIgVJBH6-94" style="edgeStyle=orthogonalEdgeStyle;rounded=0;orthogonalLoop=1;jettySize=auto;html=1;fontSize=35;strokeWidth=10;" edge="1" parent="1" source="ki_Qq6n7sDI-YIgVJBH6-86" target="ki_Qq6n7sDI-YIgVJBH6-87">
          <mxGeometry relative="1" as="geometry" />
        </mxCell>
        <mxCell id="ki_Qq6n7sDI-YIgVJBH6-86" value="&lt;span style=&quot;font-size: 31px&quot;&gt;평점 내림차순으로&lt;/span&gt;&lt;br style=&quot;font-size: 31px&quot;&gt;&lt;span style=&quot;font-size: 31px&quot;&gt;업체 이름 출력&lt;/span&gt;" style="rounded=0;whiteSpace=wrap;html=1;fontSize=31;fontStyle=1;fillColor=#ffe6cc;strokeColor=#d79b00;" vertex="1" parent="1">
          <mxGeometry x="-215" y="1820" width="280" height="180" as="geometry" />
        </mxCell>
        <mxCell id="ki_Qq6n7sDI-YIgVJBH6-95" style="edgeStyle=orthogonalEdgeStyle;rounded=0;orthogonalLoop=1;jettySize=auto;html=1;fontSize=35;strokeWidth=10;" edge="1" parent="1" source="ki_Qq6n7sDI-YIgVJBH6-87" target="ki_Qq6n7sDI-YIgVJBH6-88">
          <mxGeometry relative="1" as="geometry" />
        </mxCell>
        <mxCell id="ki_Qq6n7sDI-YIgVJBH6-87" value="&lt;span style=&quot;font-size: 35px;&quot;&gt;gettopfiveList()&lt;/span&gt;" style="rounded=0;whiteSpace=wrap;html=1;fontSize=35;fontStyle=1;fillColor=#ffe6cc;strokeColor=#d79b00;" vertex="1" parent="1">
          <mxGeometry x="335" y="1820" width="280" height="180" as="geometry" />
        </mxCell>
        <mxCell id="ki_Qq6n7sDI-YIgVJBH6-103" style="edgeStyle=orthogonalEdgeStyle;rounded=0;orthogonalLoop=1;jettySize=auto;html=1;fontSize=35;strokeWidth=9;strokeColor=#292929;" edge="1" parent="1" source="ki_Qq6n7sDI-YIgVJBH6-88" target="ki_Qq6n7sDI-YIgVJBH6-102">
          <mxGeometry relative="1" as="geometry" />
        </mxCell>
        <mxCell id="ki_Qq6n7sDI-YIgVJBH6-131" style="edgeStyle=orthogonalEdgeStyle;rounded=0;orthogonalLoop=1;jettySize=auto;html=1;fontSize=31;strokeColor=#292929;strokeWidth=9;" edge="1" parent="1" source="ki_Qq6n7sDI-YIgVJBH6-88" target="ki_Qq6n7sDI-YIgVJBH6-129">
          <mxGeometry relative="1" as="geometry" />
        </mxCell>
        <mxCell id="ki_Qq6n7sDI-YIgVJBH6-88" value="topfiveList()" style="rounded=0;whiteSpace=wrap;html=1;fontSize=35;fontStyle=1;fillColor=#ffe6cc;strokeColor=#d79b00;" vertex="1" parent="1">
          <mxGeometry x="875" y="1820" width="280" height="180" as="geometry" />
        </mxCell>
        <mxCell id="ki_Qq6n7sDI-YIgVJBH6-89" value="&lt;font style=&quot;font-size: 50px;&quot;&gt;StartView&lt;/font&gt;" style="shape=step;perimeter=stepPerimeter;whiteSpace=wrap;html=1;fixedSize=1;fontSize=50;fontStyle=1" vertex="1" parent="1">
          <mxGeometry x="-270" y="1520" width="390" height="190" as="geometry" />
        </mxCell>
        <mxCell id="ki_Qq6n7sDI-YIgVJBH6-90" value="Controller" style="shape=step;perimeter=stepPerimeter;whiteSpace=wrap;html=1;fixedSize=1;fontSize=50;fontStyle=1" vertex="1" parent="1">
          <mxGeometry x="280" y="1520" width="390" height="190" as="geometry" />
        </mxCell>
        <mxCell id="ki_Qq6n7sDI-YIgVJBH6-91" value="Service" style="shape=step;perimeter=stepPerimeter;whiteSpace=wrap;html=1;fixedSize=1;fontSize=50;fontStyle=1" vertex="1" parent="1">
          <mxGeometry x="820" y="1520" width="390" height="190" as="geometry" />
        </mxCell>
        <mxCell id="ki_Qq6n7sDI-YIgVJBH6-92" value="EndView" style="shape=step;perimeter=stepPerimeter;whiteSpace=wrap;html=1;fixedSize=1;fontSize=50;fontStyle=1" vertex="1" parent="1">
          <mxGeometry x="1350" y="1520" width="390" height="190" as="geometry" />
        </mxCell>
        <mxCell id="ki_Qq6n7sDI-YIgVJBH6-93" value="&lt;font style=&quot;font-size: 50px&quot;&gt;DTO&lt;/font&gt;" style="shape=step;perimeter=stepPerimeter;whiteSpace=wrap;html=1;fixedSize=1;fontSize=50;fontStyle=1" vertex="1" parent="1">
          <mxGeometry x="-180" y="-50" width="390" height="190" as="geometry" />
        </mxCell>
        <mxCell id="ki_Qq6n7sDI-YIgVJBH6-102" value="txt파일 생성 후 저장" style="rounded=0;whiteSpace=wrap;html=1;fontSize=35;fontStyle=1;fillColor=#ffe6cc;strokeColor=#d79b00;" vertex="1" parent="1">
          <mxGeometry x="700" y="2158" width="280" height="180" as="geometry" />
        </mxCell>
        <mxCell id="ki_Qq6n7sDI-YIgVJBH6-108" style="edgeStyle=orthogonalEdgeStyle;rounded=0;orthogonalLoop=1;jettySize=auto;html=1;entryX=0;entryY=0.5;entryDx=0;entryDy=0;fontSize=35;strokeColor=#292929;strokeWidth=9;" edge="1" parent="1">
          <mxGeometry relative="1" as="geometry">
            <mxPoint x="65" y="3370" as="sourcePoint" />
            <mxPoint x="335" y="3370" as="targetPoint" />
          </mxGeometry>
        </mxCell>
        <mxCell id="ki_Qq6n7sDI-YIgVJBH6-109" style="edgeStyle=orthogonalEdgeStyle;rounded=0;orthogonalLoop=1;jettySize=auto;html=1;entryX=0;entryY=0.5;entryDx=0;entryDy=0;fontSize=35;strokeColor=#292929;strokeWidth=9;" edge="1" parent="1">
          <mxGeometry relative="1" as="geometry">
            <mxPoint x="615" y="3370" as="sourcePoint" />
            <mxPoint x="875" y="3370" as="targetPoint" />
          </mxGeometry>
        </mxCell>
        <mxCell id="ki_Qq6n7sDI-YIgVJBH6-110" style="edgeStyle=orthogonalEdgeStyle;rounded=0;orthogonalLoop=1;jettySize=auto;html=1;fontSize=35;strokeColor=#292929;strokeWidth=9;exitX=0.5;exitY=1;exitDx=0;exitDy=0;entryX=0.5;entryY=1;entryDx=0;entryDy=0;" edge="1" parent="1" source="ki_Qq6n7sDI-YIgVJBH6-126" target="ki_Qq6n7sDI-YIgVJBH6-111">
          <mxGeometry relative="1" as="geometry">
            <mxPoint x="790" y="3690" as="sourcePoint" />
            <mxPoint x="1550" y="3480" as="targetPoint" />
            <Array as="points">
              <mxPoint x="475" y="3520" />
              <mxPoint x="1545" y="3520" />
            </Array>
          </mxGeometry>
        </mxCell>
        <mxCell id="ki_Qq6n7sDI-YIgVJBH6-111" value="print" style="rounded=0;whiteSpace=wrap;html=1;fontSize=31;fontStyle=1;fillColor=#f8cecc;strokeColor=#b85450;" vertex="1" parent="1">
          <mxGeometry x="1405" y="3280" width="280" height="180" as="geometry" />
        </mxCell>
        <mxCell id="ki_Qq6n7sDI-YIgVJBH6-116" value="Controller" style="shape=step;perimeter=stepPerimeter;whiteSpace=wrap;html=1;fixedSize=1;fontSize=50;fontStyle=1" vertex="1" parent="1">
          <mxGeometry x="280" y="3010" width="390" height="190" as="geometry" />
        </mxCell>
        <mxCell id="ki_Qq6n7sDI-YIgVJBH6-118" value="EndView" style="shape=step;perimeter=stepPerimeter;whiteSpace=wrap;html=1;fixedSize=1;fontSize=50;fontStyle=1" vertex="1" parent="1">
          <mxGeometry x="1350" y="3010" width="390" height="190" as="geometry" />
        </mxCell>
        <mxCell id="ki_Qq6n7sDI-YIgVJBH6-124" value="카테고리 검색하여&lt;br&gt;업체 이름의 &lt;br&gt;목록을 출력" style="rounded=0;whiteSpace=wrap;html=1;fontSize=31;fontStyle=1;fillColor=#f8cecc;strokeColor=#b85450;" vertex="1" parent="1">
          <mxGeometry x="-215" y="3280" width="280" height="180" as="geometry" />
        </mxCell>
        <mxCell id="ki_Qq6n7sDI-YIgVJBH6-125" value="&lt;font style=&quot;font-size: 50px;&quot;&gt;StartView&lt;/font&gt;" style="shape=step;perimeter=stepPerimeter;whiteSpace=wrap;html=1;fixedSize=1;fontSize=50;fontStyle=1" vertex="1" parent="1">
          <mxGeometry x="-270" y="3010" width="390" height="190" as="geometry" />
        </mxCell>
        <mxCell id="ki_Qq6n7sDI-YIgVJBH6-126" value="getCategoty()" style="rounded=0;whiteSpace=wrap;html=1;fontSize=31;fontStyle=1;fillColor=#f8cecc;strokeColor=#b85450;" vertex="1" parent="1">
          <mxGeometry x="335" y="3280" width="280" height="180" as="geometry" />
        </mxCell>
        <mxCell id="ki_Qq6n7sDI-YIgVJBH6-127" value="Service" style="shape=step;perimeter=stepPerimeter;whiteSpace=wrap;html=1;fixedSize=1;fontSize=50;fontStyle=1" vertex="1" parent="1">
          <mxGeometry x="820" y="3010" width="390" height="190" as="geometry" />
        </mxCell>
        <mxCell id="ki_Qq6n7sDI-YIgVJBH6-132" style="edgeStyle=orthogonalEdgeStyle;rounded=0;orthogonalLoop=1;jettySize=auto;html=1;fontSize=31;strokeColor=#292929;strokeWidth=9;entryX=0.5;entryY=0;entryDx=0;entryDy=0;" edge="1" parent="1" source="ki_Qq6n7sDI-YIgVJBH6-128" target="ki_Qq6n7sDI-YIgVJBH6-126">
          <mxGeometry relative="1" as="geometry">
            <mxPoint x="490" y="3240" as="targetPoint" />
            <Array as="points">
              <mxPoint x="1015" y="3240" />
              <mxPoint x="475" y="3240" />
            </Array>
          </mxGeometry>
        </mxCell>
        <mxCell id="ki_Qq6n7sDI-YIgVJBH6-128" value="getProject&lt;br&gt;Category()" style="rounded=0;whiteSpace=wrap;html=1;fontSize=31;fontStyle=1;fillColor=#f8cecc;strokeColor=#b85450;" vertex="1" parent="1">
          <mxGeometry x="875" y="3280" width="280" height="180" as="geometry" />
        </mxCell>
        <mxCell id="ki_Qq6n7sDI-YIgVJBH6-129" value="print" style="rounded=0;whiteSpace=wrap;html=1;fontSize=35;fontStyle=1;fillColor=#ffe6cc;strokeColor=#d79b00;" vertex="1" parent="1">
          <mxGeometry x="1030" y="2158" width="280" height="180" as="geometry" />
        </mxCell>
        <mxCell id="ki_Qq6n7sDI-YIgVJBH6-137" value="Service" style="shape=step;perimeter=stepPerimeter;whiteSpace=wrap;html=1;fixedSize=1;fontSize=50;fontStyle=1" vertex="1" parent="1">
          <mxGeometry x="820" y="4110" width="390" height="190" as="geometry" />
        </mxCell>
        <mxCell id="ki_Qq6n7sDI-YIgVJBH6-138" value="Controller" style="shape=step;perimeter=stepPerimeter;whiteSpace=wrap;html=1;fixedSize=1;fontSize=50;fontStyle=1" vertex="1" parent="1">
          <mxGeometry x="280" y="4110" width="390" height="190" as="geometry" />
        </mxCell>
        <mxCell id="ki_Qq6n7sDI-YIgVJBH6-139" value="&lt;font style=&quot;font-size: 50px;&quot;&gt;StartView&lt;/font&gt;" style="shape=step;perimeter=stepPerimeter;whiteSpace=wrap;html=1;fixedSize=1;fontSize=50;fontStyle=1" vertex="1" parent="1">
          <mxGeometry x="-270" y="4110" width="390" height="190" as="geometry" />
        </mxCell>
        <mxCell id="ki_Qq6n7sDI-YIgVJBH6-140" value="EndView" style="shape=step;perimeter=stepPerimeter;whiteSpace=wrap;html=1;fixedSize=1;fontSize=50;fontStyle=1" vertex="1" parent="1">
          <mxGeometry x="1350" y="4110" width="390" height="190" as="geometry" />
        </mxCell>
        <mxCell id="ki_Qq6n7sDI-YIgVJBH6-145" style="edgeStyle=orthogonalEdgeStyle;rounded=0;orthogonalLoop=1;jettySize=auto;html=1;fontSize=31;strokeColor=#292929;strokeWidth=9;" edge="1" parent="1" source="ki_Qq6n7sDI-YIgVJBH6-141" target="ki_Qq6n7sDI-YIgVJBH6-142">
          <mxGeometry relative="1" as="geometry" />
        </mxCell>
        <mxCell id="ki_Qq6n7sDI-YIgVJBH6-141" value="특정 업체를 검색할 때마다 로그 기록" style="rounded=0;whiteSpace=wrap;html=1;fontSize=31;fontStyle=1;fillColor=#e1d5e7;strokeColor=#9673a6;" vertex="1" parent="1">
          <mxGeometry x="-215" y="4390" width="280" height="180" as="geometry" />
        </mxCell>
        <mxCell id="ki_Qq6n7sDI-YIgVJBH6-147" style="edgeStyle=orthogonalEdgeStyle;rounded=0;orthogonalLoop=1;jettySize=auto;html=1;entryX=0;entryY=0.5;entryDx=0;entryDy=0;fontSize=31;strokeColor=#292929;strokeWidth=9;" edge="1" parent="1" source="ki_Qq6n7sDI-YIgVJBH6-142" target="ki_Qq6n7sDI-YIgVJBH6-146">
          <mxGeometry relative="1" as="geometry" />
        </mxCell>
        <mxCell id="ki_Qq6n7sDI-YIgVJBH6-142" value="가장 많이 검색된 &lt;br&gt;업체 이름 출력" style="rounded=0;whiteSpace=wrap;html=1;fontSize=31;fontStyle=1;fillColor=#e1d5e7;strokeColor=#9673a6;" vertex="1" parent="1">
          <mxGeometry x="-215" y="4740" width="280" height="180" as="geometry" />
        </mxCell>
        <mxCell id="ki_Qq6n7sDI-YIgVJBH6-149" style="edgeStyle=orthogonalEdgeStyle;rounded=0;orthogonalLoop=1;jettySize=auto;html=1;fontSize=31;strokeColor=#292929;strokeWidth=9;" edge="1" parent="1" source="ki_Qq6n7sDI-YIgVJBH6-146">
          <mxGeometry relative="1" as="geometry">
            <mxPoint x="870" y="4830" as="targetPoint" />
          </mxGeometry>
        </mxCell>
        <mxCell id="ki_Qq6n7sDI-YIgVJBH6-155" style="edgeStyle=orthogonalEdgeStyle;rounded=0;orthogonalLoop=1;jettySize=auto;html=1;fontSize=31;strokeColor=#292929;strokeWidth=9;entryX=0.5;entryY=1;entryDx=0;entryDy=0;" edge="1" parent="1" source="ki_Qq6n7sDI-YIgVJBH6-146" target="ki_Qq6n7sDI-YIgVJBH6-156">
          <mxGeometry relative="1" as="geometry">
            <mxPoint x="475" y="5030" as="targetPoint" />
            <Array as="points">
              <mxPoint x="475" y="5060" />
              <mxPoint x="1545" y="5060" />
            </Array>
          </mxGeometry>
        </mxCell>
        <mxCell id="ki_Qq6n7sDI-YIgVJBH6-146" value="MostSearched()" style="rounded=0;whiteSpace=wrap;html=1;fontSize=31;fontStyle=1;fillColor=#e1d5e7;strokeColor=#9673a6;" vertex="1" parent="1">
          <mxGeometry x="335" y="4740" width="280" height="180" as="geometry" />
        </mxCell>
        <mxCell id="ki_Qq6n7sDI-YIgVJBH6-153" style="edgeStyle=orthogonalEdgeStyle;rounded=0;orthogonalLoop=1;jettySize=auto;html=1;fontSize=31;strokeColor=#292929;strokeWidth=9;" edge="1" parent="1" source="ki_Qq6n7sDI-YIgVJBH6-148">
          <mxGeometry relative="1" as="geometry">
            <mxPoint x="1015" y="4580" as="targetPoint" />
          </mxGeometry>
        </mxCell>
        <mxCell id="ki_Qq6n7sDI-YIgVJBH6-148" value="MostSearched&lt;br&gt;Service()" style="rounded=0;whiteSpace=wrap;html=1;fontSize=31;fontStyle=1;fillColor=#e1d5e7;strokeColor=#9673a6;" vertex="1" parent="1">
          <mxGeometry x="875" y="4740" width="280" height="180" as="geometry" />
        </mxCell>
        <mxCell id="ki_Qq6n7sDI-YIgVJBH6-154" style="edgeStyle=orthogonalEdgeStyle;rounded=0;orthogonalLoop=1;jettySize=auto;html=1;entryX=0.5;entryY=0;entryDx=0;entryDy=0;fontSize=31;strokeColor=#292929;strokeWidth=9;" edge="1" parent="1" source="ki_Qq6n7sDI-YIgVJBH6-152" target="ki_Qq6n7sDI-YIgVJBH6-146">
          <mxGeometry relative="1" as="geometry" />
        </mxCell>
        <mxCell id="ki_Qq6n7sDI-YIgVJBH6-152" value="로그기록 조회&lt;br&gt;최다 검색업체 &lt;br&gt;리턴" style="rounded=0;whiteSpace=wrap;html=1;fontSize=31;fontStyle=1;fillColor=#e1d5e7;strokeColor=#9673a6;" vertex="1" parent="1">
          <mxGeometry x="875" y="4390" width="280" height="180" as="geometry" />
        </mxCell>
        <mxCell id="ki_Qq6n7sDI-YIgVJBH6-156" value="print" style="rounded=0;whiteSpace=wrap;html=1;fontSize=31;fontStyle=1;fillColor=#e1d5e7;strokeColor=#9673a6;" vertex="1" parent="1">
          <mxGeometry x="1405" y="4740" width="280" height="180" as="geometry" />
        </mxCell>
      </root>
    </mxGraphModel>
  </diagram>
</mxfile>
